<?xml version="1.0" encoding="UTF-8" standalone="no"?>
<svg
   id="glyphicons-basic"
   viewBox="0 0 350 525"
   version="1.1"
   sodipodi:docname="image.svg"
   width="350"
   height="525"
   inkscape:export-filename="image.png"
   inkscape:export-xdpi="300"
   inkscape:export-ydpi="300"
   inkscape:version="1.2.2 (b0a8486541, 2022-12-01)"
   xmlns:inkscape="http://www.inkscape.org/namespaces/inkscape"
   xmlns:sodipodi="http://sodipodi.sourceforge.net/DTD/sodipodi-0.dtd"
   xmlns="http://www.w3.org/2000/svg"
   xmlns:svg="http://www.w3.org/2000/svg">
  <defs
     id="defs6" />
  <sodipodi:namedview
     id="namedview4"
     pagecolor="#ffffff"
     bordercolor="#000000"
     borderopacity="0.25"
     inkscape:showpageshadow="2"
     inkscape:pageopacity="0.0"
     inkscape:pagecheckerboard="0"
     inkscape:deskcolor="#d1d1d1"
     showgrid="true"
     inkscape:zoom="1.84375"
     inkscape:cx="-37.966102"
     inkscape:cy="260.33898"
     inkscape:window-width="2560"
     inkscape:window-height="1516"
     inkscape:window-x="0"
     inkscape:window-y="0"
     inkscape:window-maximized="1"
     inkscape:current-layer="glyphicons-basic">
    <inkscape:grid
       type="xygrid"
       id="grid112"
       originx="0"
       originy="0" />
  </sodipodi:namedview>
  <rect
     style="fill:#181818;fill-opacity:1;stroke-width:1.42887"
     id="rect272"
     width="350"
     height="525"
     x="0"
     y="0" />
  <path
     fill="#b5b5b5"
     id="picture"
     d="M 211.01839,228.04762 H 138.9816 a 4.6983027,4.6983027 0 0 0 -4.69805,4.69805 v 59.50866 a 4.6983027,4.6983027 0 0 0 4.69805,4.69805 h 72.03679 a 4.6983027,4.6983027 0 0 0 4.69806,-4.69805 v -59.50866 a 4.6983027,4.6983027 0 0 0 -4.69806,-4.69805 z m -4.69803,42.28246 -15.01577,-16.38085 a 3.1127101,3.1127101 0 0 0 -4.52354,-0.0982 l -16.74826,16.74827 16.95702,16.95703 h -8.85778 l -15.01157,-15.01185 a 3.1327238,3.1327238 0 0 0 -4.42925,0 l -15.01156,15.01185 v -50.11256 h 62.64071 z m -56.06344,-18.79221 a 7.5168834,7.5168834 0 1 1 7.5169,7.51688 7.5170399,7.5170399 0 0 1 -7.5169,-7.51688 z"
     style="fill:#b3b3b3;fill-opacity:1;stroke-width:3.13203" />
</svg>
