<?xml version="1.0" encoding="UTF-8" standalone="no"?>
<svg
   width="938"
   height="938"
   fill="currentColor"
   class="bi bi-person-fill"
   viewBox="0 0 938 938"
   version="1.1"
   id="svg4"
   sodipodi:docname="noimage_person.svg"
   inkscape:version="1.2.2 (b0a8486541, 2022-12-01)"
   inkscape:export-filename="noimage_person.png"
   inkscape:export-xdpi="96"
   inkscape:export-ydpi="96"
   xml:space="preserve"
   xmlns:inkscape="http://www.inkscape.org/namespaces/inkscape"
   xmlns:sodipodi="http://sodipodi.sourceforge.net/DTD/sodipodi-0.dtd"
   xmlns="http://www.w3.org/2000/svg"
   xmlns:svg="http://www.w3.org/2000/svg"><defs
     id="defs8" /><sodipodi:namedview
     id="namedview6"
     pagecolor="#ffffff"
     bordercolor="#000000"
     borderopacity="0.25"
     inkscape:showpageshadow="2"
     inkscape:pageopacity="0.0"
     inkscape:pagecheckerboard="0"
     inkscape:deskcolor="#d1d1d1"
     showgrid="true"
     inkscape:zoom="0.92187501"
     inkscape:cx="260.33898"
     inkscape:cy="433.8983"
     inkscape:window-width="2560"
     inkscape:window-height="1522"
     inkscape:window-x="0"
     inkscape:window-y="0"
     inkscape:window-maximized="1"
     inkscape:current-layer="svg4"><inkscape:grid
       type="xygrid"
       id="grid8195" /></sodipodi:namedview><rect
     style="fill:#181818;fill-opacity:1"
     id="rect4803"
     width="940"
     height="940"
     x="0"
     y="0" /><path
     style="fill:#b2b2b2;stroke:none;stroke-width:1.00675;fill-opacity:1"
     d="m 401.9439,423.29529 h 1.00679 c 0.0986,-11.86264 -0.3967,-38.19538 11.16794,-45.21047 8.58865,-5.20897 23.29038,3.68875 32.12263,5.49386 20.57613,4.20622 44.50069,-3.78842 56.37845,-21.69562 h 1.00673 c 4.86265,6.03149 11.27068,10.49444 15.55646,17.11487 8.01884,12.38615 8.60574,29.92991 8.60574,44.29736 14.19226,-26.64689 18.92404,-72.568 -3.2055,-96.60907 -8.99437,-9.77089 -17.28805,-7.91877 -28.2909,-11.63603 -9.6337,-3.25444 -18.61396,-7.33775 -28.90906,-8.36715 -30.989,-3.0985 -57.67513,14.27231 -70.69252,42.11216 -12.86129,27.50362 3.12297,47.72839 5.25324,74.50009 m 124.83798,87.58792 -25.16897,64.43249 -13.08783,29.19598 c -0.303,-7.03221 -1.4356,-25.38239 -8.16381,-29.16779 -3.53876,-1.99138 -9.06686,-1.03495 -12.97809,-1.03495 -3.94652,0 -9.43232,-0.85473 -12.35495,2.45045 -4.93009,5.5734 -5.78988,21.45199 -6.77344,28.75905 -10.62033,-22.43862 -18.63206,-46.39242 -27.78757,-69.46628 -1.99133,-5.01971 -5.61362,-21.45102 -10.89004,-23.46048 -7.01912,-2.67396 -25.84448,7.2688 -32.80222,9.78266 -23.09217,8.34098 -50.77535,16.87126 -59.18046,42.87377 -2.57168,7.95642 -2.23175,15.91484 -2.23175,24.16219 0,5.50998 -2.33249,18.03001 1.03474,22.58762 2.78426,3.7683 12.75357,4.43175 17.0869,5.47072 16.53677,3.96261 33.51192,6.29427 50.33786,8.6118 58.24801,8.02186 120.03071,7.22049 178.19613,-1.16078 14.19527,-2.04574 28.25164,-4.54349 42.28381,-7.53257 4.65628,-0.99166 12.88351,-1.61987 16.50784,-4.91095 4.71164,-4.27873 1.61585,-22.99134 1.61381,-29.10639 -0.0179,-46.92899 -57.65195,-63.69756 -95.64196,-72.48654 m -73.38355,22.17685 c -6.77251,3.81359 -2.70821,19.98113 1.60475,24.70382 3.88004,4.24851 21.54262,4.05824 26.24518,1.12355 5.32172,-3.3203 9.31755,-20.96978 3.97565,-25.24848 -4.57268,-3.66158 -26.76467,-3.42902 -31.82558,-0.57889 m 127.7485,72.45838 -40.27037,8.05406 15.06211,-18.1166 7.17723,-5.11837 z"
     id="path301" /></svg>
